# xmcd CD database file
#
# Track frame offsets:
#	150
#	16050
#	30675
#	44175
#	60750
#	76275
#	92850
#	111450
#	123675
#	136275
#	149467
#	161542
#	181642
#	197542
#	212625
#	229300
#	246870
#	264315
#	277195
#
# Disc length: 3940 seconds
#
# Revision: 1
# Processed by: cddbd v1.5.2PL0 Copyright (c) Steve Scherf et al.
# Submitted via: CDex 1.79
#
DISCID=110f6213
DTITLE=Neil Diamond - The Ultimate Collection [CD1]
DYEAR=1996
DGENRE=Country
TTITLE0=Sweet Caroline
TTITLE1=Song Sung Blue
TTITLE2=Cracklin' Rosie
TTITLE3=Love on the Rocks
TTITLE4=Beautiful Noise
TTITLE5=Forever in Blue Jeans
TTITLE6=Hello Again
TTITLE7=Red, Red Wine
TTITLE8=Everybody's Talkin'
TTITLE9=Girl, You'll Be a Woman Soon
TTITLE10=I'm a Believer
TTITLE11=Heartlight
TTITLE12=Up on the Roof
TTITLE13=Desiree
TTITLE14=If You Know What I Mean
TTITLE15=Longfellow Serenade
TTITLE16=Play Me
TTITLE17=You Got to Me
TTITLE18=I (Who Have Nothing)
EXTD=YEAR: 1996
EXTT0=
EXTT1=
EXTT2=
EXTT3=
EXTT4=
EXTT5=
EXTT6=
EXTT7=
EXTT8=
EXTT9=
EXTT10=
EXTT11=
EXTT12=
EXTT13=
EXTT14=
EXTT15=
EXTT16=
EXTT17=
EXTT18=
PLAYORDER=
